<?xml version="1.0" encoding="utf-8"?>
<!-- Generator: Adobe Illustrator 25.0.1, SVG Export Plug-In . SVG Version: 6.00 Build 0)  -->
<svg version="1.1" id="Layer_1" xmlns="http://www.w3.org/2000/svg" xmlns:xlink="http://www.w3.org/1999/xlink" x="0px" y="0px"
	 viewBox="0 0 141.73 141.73" style="enable-background:new 0 0 141.73 141.73;" xml:space="preserve">
<style type="text/css">
	.st0{fill:none;}
	.st1{fill:none;stroke:#58595B;stroke-width:6;stroke-linecap:round;stroke-linejoin:round;stroke-miterlimit:10;}
	.st2{fill:none;stroke:#58595B;stroke-width:5;stroke-linecap:round;stroke-linejoin:round;stroke-miterlimit:10;}
</style>
<g>
	<rect x="28.65" y="28.48" class="st0" width="85.04" height="85.04"/>
	<g>
		<g>
			
				<rect x="46.14" y="45.53" transform="matrix(0.9849 -0.173 0.173 0.9849 -10.1985 10.0822)" class="st1" width="13.22" height="36.04"/>
			<line class="st1" x1="58.84" y1="94.97" x2="62.47" y2="79.95"/>
			<line class="st1" x1="57.82" y1="95.15" x2="49.3" y2="82.26"/>
		</g>
		<path class="st2" d="M58.45,94.08c-0.23,1.13,0.52,2.3,1.55,2.82c1.03,0.53,2.25,0.52,3.38,0.28c5.9-1.22,9.09-7.43,13.5-11.53
			c2.97-2.76,6.73-4.67,10.71-5.43c2.05-0.39,4.6-0.26,5.64,1.55c0.87,1.52,0.18,3.47-0.89,4.86c-1.07,1.38-2.5,2.48-3.38,3.99
			c-0.88,1.51-0.99,3.72,0.4,4.77c0.62,0.47,1.42,0.63,2.2,0.74c2.53,0.38,5.1,0.5,7.65,0.37"/>
	</g>
</g>
</svg>
